<svg xmlns="http://www.w3.org/2000/svg" version="1.0" preserveAspectRatio="xMidYMid meet" viewBox="41.98 116.26 212.01 64.74">
<metadata>
Created by potrace 1.10, written by Peter Selinger 2001-2011
</metadata>
<g transform="translate(0.000000,300.000000) scale(0.100000,-0.100000)" fill="#000000" stroke="none">
<path d="M812 1825 c-19 -8 -46 -28 -61 -44 l-28 -30 -44 15 c-24 9 -59 13 -77 10 -42 -6 -97 -47 -117 -86 -19 -36 -19 -97 0 -130 8 -14 14 -40 15 -58 0 -19 12 -48 30 -74 21 -29 30 -53 30 -80 l0 -38 -44 0 c-77 0 -124 -62 -78 -103 10 -10 32 -17 48 -17 27 0 120 31 154 51 58 35 106 50 128 40 12 -6 67 -11 121 -11 110 0 147 16 153 68 3 29 -2 29 98 11 67 -12 95 0 111 48 8 25 16 33 35 33 19 0 24 -5 24 -24 0 -15 12 -34 31 -50 23 -20 28 -30 21 -39 -12 -14 5 -78 25 -98 17 -17 41 1 54 39 l12 37 8 -28 c4 -16 13 -35 20 -43 15 -19 73 -18 89 1 12 14 15 13 35 -5 26 -25 67 -26 87 -2 12 13 14 28 9 64 -8 49 -2 58 39 58 10 0 32 11 48 25 l30 25 28 -24 c25 -20 27 -26 15 -40 -15 -18 -9 -79 10 -102 20 -25 39 -15 58 28 l18 42 7 -29 c4 -17 12 -36 18 -42 15 -18 73 -16 88 2 12 14 15 13 35 -5 26 -24 58 -26 76 -3 16 18 21 90 8 99 -23 14 -4 24 44 24 43 0 58 5 75 23 25 27 27 45 8 72 -17 24 -10 85 10 85 11 0 14 -16 14 -64 0 -53 4 -67 25 -90 31 -34 67 -34 94 0 16 21 21 41 21 91 0 52 3 65 18 70 56 20 70 77 26 112 -24 19 -40 20 -213 20 -163 0 -191 -2 -215 -18 -26 -18 -29 -18 -64 0 -45 23 -103 24 -149 2 -33 -15 -37 -15 -64 1 -56 33 -108 -12 -110 -98 l-2 -51 -6 56 c-6 56 -20 82 -52 100 -23 12 -63 -6 -79 -36 l-13 -24 -32 35 c-39 41 -63 43 -104 8 l-31 -26 -31 26 c-27 23 -39 26 -105 26 -70 0 -76 -2 -111 -34 -21 -18 -48 -39 -61 -45 l-23 -12 7 60 c5 50 3 67 -16 106 -31 64 -78 98 -143 102 -32 2 -65 -3 -85 -12z m143 -45 c69 -42 87 -150 34 -206 -19 -20 -20 -24 -6 -24 15 0 17 -14 17 -120 l0 -120 -115 0 -115 0 0 38 0 37 45 -3 c40 -4 45 -2 45 17 0 18 -6 21 -45 21 -38 0 -45 3 -45 20 0 17 7 20 50 20 43 0 50 3 50 20 0 18 -7 20 -72 20 l-73 0 3 -95 4 -95 -39 0 c-33 0 -42 -4 -51 -25 -8 -18 -19 -25 -39 -25 -16 0 -40 -6 -54 -14 -14 -7 -42 -16 -62 -20 -33 -6 -37 -5 -37 14 0 15 9 22 33 27 17 4 36 6 41 4 25 -7 106 12 106 25 0 8 -7 14 -15 14 -12 0 -15 15 -15 75 0 60 -3 75 -15 75 -8 0 -15 -4 -15 -10 0 -21 -16 -8 -31 25 -14 30 -14 35 -2 35 8 0 23 -5 33 -10 13 -7 21 -7 25 0 3 6 -5 14 -18 19 -60 23 -87 111 -51 167 21 30 64 54 100 54 28 0 94 -35 94 -51 0 -23 20 -5 39 35 36 72 127 99 196 56z m385 -185 c0 -24 -2 -25 -65 -25 -63 0 -65 -1 -65 -25 0 -24 3 -25 60 -25 57 0 60 -1 60 -25 0 -24 -3 -25 -61 -25 l-60 0 7 -45 6 -45 -31 0 -31 0 0 120 0 120 90 0 c89 0 90 0 90 -25z m185 -82 c21 -60 40 -114 42 -120 4 -9 -5 -13 -25 -13 -23 0 -31 5 -36 25 -6 22 -12 25 -50 25 -39 0 -45 -3 -48 -22 -2 -18 -11 -24 -35 -26 l-31 -3 39 108 c22 59 42 114 44 121 2 6 17 12 33 12 28 0 31 -4 67 -107z m125 17 c0 -81 2 -90 21 -101 15 -8 28 -8 45 0 28 12 39 60 31 137 l-6 54 30 0 29 0 0 -84 c0 -131 -18 -158 -108 -158 -39 0 -51 5 -74 31 -26 29 -28 37 -28 121 l0 90 30 0 30 0 0 -90z m360 75 c28 -15 50 -42 50 -64 0 -19 -46 -12 -65 9 -21 23 -77 27 -94 7 -52 -63 10 -165 74 -123 37 24 33 49 -5 41 -27 -6 -30 -4 -30 19 0 25 2 26 60 25 l60 -1 0 -69 c0 -53 -3 -69 -14 -69 -8 0 -18 14 -22 33 -6 28 -8 29 -14 12 -16 -43 -66 -61 -115 -41 -47 20 -65 52 -65 114 0 48 4 58 34 88 28 28 42 34 75 34 23 0 55 -7 71 -15z m270 -10 c0 -24 -2 -25 -65 -25 -63 0 -65 -1 -65 -26 0 -25 2 -25 58 -23 54 3 57 2 57 -21 0 -23 -3 -24 -57 -21 -56 2 -58 2 -58 -23 0 -25 2 -26 65 -26 63 0 65 -1 65 -25 0 -25 0 -25 -92 -25 l-93 0 0 120 0 120 93 0 c91 0 92 0 92 -25z m230 0 c0 -22 -4 -25 -40 -25 l-40 0 0 -95 0 -95 -30 0 -30 0 0 95 0 95 -40 0 c-36 0 -40 3 -40 25 l0 25 110 0 110 0 0 -25z m-1375 -120 c0 -57 -4 -95 -10 -95 -5 0 -21 9 -35 20 -14 11 -37 20 -52 20 -27 0 -28 2 -28 55 l0 55 33 0 c17 0 43 9 57 20 14 11 27 20 30 20 3 0 5 -43 5 -95z m367 -120 c23 -19 25 -25 12 -25 -10 0 -26 -7 -35 -16 -17 -15 -20 -15 -43 7 -23 22 -24 25 -9 41 22 24 40 23 75 -7z m122 -3 c2 -4 -4 -19 -14 -32 -18 -24 -20 -24 -36 -8 -14 14 -15 20 -4 32 13 17 45 21 54 8z m476 -16 c0 -7 -6 -19 -13 -25 -11 -8 -18 -6 -31 8 -13 15 -14 20 -4 24 25 10 48 7 48 -7z m-130 -17 c-9 -16 -14 -18 -26 -8 -12 10 -12 14 -2 20 26 17 40 11 28 -12z m-540 -19 c0 -5 -4 -10 -10 -10 -5 0 -10 -13 -10 -30 0 -16 -4 -30 -10 -30 -5 0 -10 14 -10 30 0 17 -4 30 -10 30 -5 0 -10 5 -10 10 0 6 14 10 30 10 17 0 30 -4 30 -10z m80 -5 c0 -8 7 -15 15 -15 8 0 15 7 15 15 0 8 5 15 10 15 6 0 10 -18 10 -40 0 -22 -4 -40 -10 -40 -5 0 -10 7 -10 15 0 8 -7 15 -15 15 -8 0 -15 -7 -15 -15 0 -8 -4 -15 -10 -15 -5 0 -10 18 -10 40 0 22 5 40 10 40 6 0 10 -7 10 -15z m170 5 c0 -5 -10 -11 -22 -11 l-23 -2 23 -4 c27 -5 29 -23 2 -23 -27 0 -25 -18 3 -23 16 -3 13 -5 -10 -6 -32 -1 -33 0 -33 39 0 38 2 40 30 40 17 0 30 -4 30 -10z m240 0 c0 -5 -4 -10 -10 -10 -5 0 -10 -13 -10 -30 0 -16 -4 -30 -8 -30 -5 0 -7 14 -4 30 3 23 0 30 -12 30 -9 0 -16 5 -16 10 0 6 14 10 30 10 17 0 30 -4 30 -10z m123 -5 c4 -8 2 -17 -3 -20 -7 -4 -6 -13 0 -26 8 -13 7 -19 0 -19 -6 0 -13 7 -16 15 -4 8 -10 15 -15 15 -5 0 -9 -7 -9 -15 0 -8 -4 -15 -10 -15 -11 0 -14 63 -3 73 12 13 51 7 56 -8z m127 5 c0 -5 -12 -11 -27 -11 l-28 -2 28 -4 c35 -6 35 -23 0 -23 -29 0 -22 -15 12 -23 13 -3 9 -5 -12 -6 -32 -1 -33 0 -33 39 0 38 2 40 30 40 17 0 30 -4 30 -10z"/>
<path d="M860 1733 c-51 -19 -68 -84 -30 -118 44 -40 120 -9 120 50 0 42 -52 82 -90 68z m21 -36 c-13 -13 -26 -3 -16 12 3 6 11 8 17 5 6 -4 6 -10 -1 -17z m-21 -28 c0 -5 -7 -9 -15 -9 -15 0 -20 12 -9 23 8 8 24 -1 24 -14z m10 -34 c0 -8 -4 -15 -10 -15 -5 0 -10 7 -10 15 0 8 5 15 10 15 6 0 10 -7 10 -15z"/>
<path d="M592 1674 c-42 -29 -18 -104 35 -104 49 0 72 76 31 104 -12 9 -27 16 -33 16 -6 0 -21 -7 -33 -16z"/>
<path d="M726 1574 c-9 -24 -9 -24 29 -24 33 0 34 1 23 20 -15 24 -43 26 -52 4z"/>
<path d="M1446 1526 c-3 -13 -9 -31 -12 -40 -5 -12 1 -16 24 -16 30 0 30 0 18 35 -16 46 -22 51 -30 21z"/>
<path d="M1735 1300 c-29 -56 -14 -90 40 -90 56 0 73 45 34 94 -27 34 -55 33 -74 -4z m63 -37 c7 -20 7 -33 1 -33 -5 0 -9 5 -9 10 0 14 -28 12 -33 -2 -2 -7 -7 -10 -11 -7 -3 3 1 23 10 44 17 41 25 38 42 -12z"/>
</g>
</svg>